# xmcd
#
# Track frame offsets: 
#        150
#        13252
#        29168
#        45102
#        60922
#        75318
#        89074
#        104523
#        118632
#        133369
#        150929
#        165569
#        185168
#        202463
#        220811
#        232990
#        246771
#        260717
#        276038
#        290679
#        306785
#
# Disc length: 4302 seconds
#
# Revision: 5
# Processed by: cddbd v1.5.2PL0 Copyright (c) Steve Scherf et al.
# Submitted via: ExactAudioCopy v0.95b4
#
DISCID=3410cc15
DTITLE=Various Artist - Future Tance Vol. 34 CD 1
DYEAR=2005
DGENRE=Trance
TTITLE0=Special D. - Here I Am
TTITLE1=Scooter  - Hello! (Good To Be Back)
TTITLE2=C-Bool - House Baby (Verano Mix Edit)
TTITLE3=Brooklyn Bounce - Sex, Bass and Rock&Roll
TTITLE4=DHT - Listen To Your Heart
TTITLE5=The Real Booty Babes - Since You´ve Been Gone
TTITLE6=Klubbingman - Love Message (Tune Up! Mix Edit)
TTITLE7=Seven-R-G vs. Bass-T - Feel Fine
TTITLE8=Cascada - How Do You Do
TTITLE9=Frankie B - Mr. Lonely (Bangbros Mix Edit)
TTITLE10=Andy Lopez - Noche Del Amor (Tune Up! Mix Edit)
TTITLE11=Anima Ladina - Extasy (DJ MNS Remix Edit)
TTITLE12=Mikesh - Hardcore Salsa
TTITLE13=Ceoma feat. The Larx - Love Is More (Rob Mayth Mix Edit)
TTITLE14=Paffendorf - Under My Skin (Jens O Mix Edit)
TTITLE15=Jens O - One More
TTITLE16=Klubbdriver - Move Your Feet (Pulsedriver Single Mix)
TTITLE17=Zane and Foster - Big Boom Bang (Cascada Mix Edit)
TTITLE18=Bulldozer - Funky Groove (Tune Up! Mix Edit)
TTITLE19=Jan Wayne - Time 2 Fly (Marc Arcadipane Mix Edit)
TTITLE20=Second Spring - Feel The Silence
EXTD=YEAR: 2005
EXTT0=
EXTT1=
EXTT2=
EXTT3=
EXTT4=
EXTT5=
EXTT6=
EXTT7=
EXTT8=
EXTT9=
EXTT10=
EXTT11=
EXTT12=
EXTT13=
EXTT14=
EXTT15=
EXTT16=
EXTT17=
EXTT18=
EXTT19=
EXTT20=
PLAYORDER=
